<?xml version="1.0" standalone="no"?>
<!DOCTYPE svg PUBLIC "-//W3C//DTD SVG 20010904//EN"
 "http://www.w3.org/TR/2001/REC-SVG-20010904/DTD/svg10.dtd">
<svg version="1.0" xmlns="http://www.w3.org/2000/svg"
 width="461.000000pt" height="461.000000pt" viewBox="0 0 461.000000 461.000000"
 preserveAspectRatio="xMidYMid meet">
<metadata>
Created by potrace 1.11, written by Peter Selinger 2001-2013
</metadata>
<g transform="translate(0.000000,461.000000) scale(0.100000,-0.100000)"
fill="#000000" stroke="none">
<path d="M1387 4584 c-1 -1 -18 -5 -37 -7 -19 -3 -35 -6 -35 -7 0 -1 -17 -6
-47 -13 -53 -11 -156 -79 -210 -136 -57 -61 -107 -131 -100 -140 2 -2 0 -7 -5
-10 -12 -8 -43 -75 -43 -93 0 -8 -4 -18 -9 -23 -6 -6 -12 -22 -15 -37 -2 -15
-8 -33 -12 -39 -4 -7 -9 -23 -11 -36 -5 -32 -11 -64 -18 -93 -22 -98 -49 -433
-38 -466 4 -11 118 -12 128 -2 3 3 7 34 10 69 6 66 10 95 19 142 3 15 8 37 10
50 2 12 9 33 14 47 13 33 22 59 21 66 0 4 3 10 8 13 4 3 17 23 28 44 34 64
118 137 190 163 40 14 51 16 127 19 145 6 215 -27 341 -165 20 -23 121 -235
117 -248 0 -1 7 -16 15 -32 9 -17 13 -30 9 -30 -4 0 0 -7 7 -17 8 -9 13 -18
11 -20 -3 -4 9 -55 17 -68 3 -5 6 -14 8 -20 5 -25 30 -115 41 -152 6 -18 8
-33 5 -33 -3 0 -1 -6 5 -12 6 -7 10 -16 10 -21 0 -13 18 -95 22 -99 1 -2 3
-14 5 -28 2 -14 7 -38 10 -55 4 -16 8 -37 10 -45 2 -8 4 -16 5 -17 3 -4 5 -11
15 -68 9 -54 11 -64 15 -67 1 -2 4 -14 5 -28 6 -38 21 -122 30 -165 3 -11 7
-31 10 -45 3 -14 8 -38 10 -55 8 -50 14 -89 21 -115 3 -14 7 -34 9 -45 2 -11
6 -36 10 -55 4 -19 8 -46 10 -60 3 -14 7 -36 10 -50 3 -14 8 -38 11 -55 2 -16
7 -43 10 -60 3 -16 8 -43 10 -60 3 -16 7 -43 10 -60 3 -16 7 -41 9 -55 1 -14
6 -41 10 -60 10 -55 23 -140 29 -193 2 -15 6 -30 9 -33 3 -3 -10 -37 -29 -74
-19 -38 -34 -71 -34 -74 0 -2 -12 -30 -27 -62 -15 -33 -28 -63 -29 -69 -2 -5
-19 -48 -39 -95 -20 -47 -38 -92 -40 -100 -2 -8 -4 -16 -5 -17 -2 -2 -3 -6 -5
-10 -1 -5 -4 -15 -7 -23 -19 -50 -51 -146 -53 -159 -2 -9 -4 -16 -5 -16 -1 0
-3 -7 -5 -15 -2 -8 -6 -25 -9 -37 -3 -13 -9 -33 -12 -45 -3 -13 -7 -30 -9 -38
-2 -8 -4 -15 -6 -15 -1 0 -3 -9 -5 -20 -1 -11 -6 -33 -9 -50 -4 -16 -8 -41
-10 -55 -2 -14 -5 -25 -6 -25 -2 0 -7 -32 -15 -105 -7 -66 -8 -314 -1 -352 14
-73 47 -145 85 -181 51 -49 151 -73 222 -55 90 23 182 131 215 251 2 4 3 8 5
10 1 1 3 10 6 19 2 10 6 26 8 35 3 10 5 18 7 18 1 0 3 9 5 20 2 11 6 31 8 45
29 148 38 284 38 545 -1 233 -8 399 -26 590 -3 28 -7 75 -10 106 -3 32 -6 61
-7 65 -3 12 28 86 63 152 16 28 25 52 21 52 -5 0 -2 4 5 9 7 4 14 14 16 22 1
8 31 73 65 144 35 72 85 177 113 235 27 58 73 152 100 210 28 58 76 157 106
220 30 63 67 142 83 174 16 32 29 65 29 72 0 8 4 14 9 14 8 0 23 29 26 50 0 5
53 113 136 284 22 44 39 85 39 93 0 7 4 13 9 13 5 0 13 10 16 23 7 22 67 150
157 334 27 56 49 105 49 107 0 3 22 48 49 101 28 52 50 97 50 100 0 3 23 53
52 112 28 60 52 110 53 113 0 3 19 42 42 86 22 45 38 86 34 92 -4 7 -120 11
-343 11 -284 0 -338 -2 -349 -15 -6 -8 -9 -17 -6 -20 3 -3 -3 -26 -13 -50 -11
-24 -17 -44 -15 -44 3 0 -1 -16 -9 -35 -8 -19 -13 -35 -11 -35 3 0 0 -12 -6
-27 -6 -16 -13 -37 -15 -48 -10 -41 -13 -50 -14 -52 -2 -2 -4 -7 -5 -13 -1 -5
-3 -11 -5 -12 -1 -2 -3 -10 -5 -18 -2 -8 -11 -40 -20 -70 -9 -30 -18 -62 -20
-70 -2 -8 -10 -36 -18 -62 -8 -27 -13 -48 -10 -48 3 0 1 -6 -5 -13 -6 -7 -13
-24 -15 -37 -3 -14 -13 -51 -22 -84 -9 -32 -18 -65 -19 -72 -1 -7 -5 -17 -9
-20 -4 -4 -7 -17 -7 -29 0 -12 -3 -25 -7 -29 -4 -3 -8 -13 -10 -21 -7 -35 -9
-41 -16 -52 -5 -7 -6 -13 -2 -13 3 0 1 -8 -4 -19 -6 -10 -13 -33 -16 -51 -3
-18 -11 -42 -17 -54 -6 -11 -10 -21 -9 -21 2 0 -2 -20 -9 -45 -7 -25 -11 -45
-10 -45 1 0 -4 -13 -10 -30 -7 -16 -14 -39 -16 -50 -7 -27 -10 -37 -17 -55 -3
-8 -11 -35 -18 -60 -7 -25 -14 -49 -15 -55 -2 -5 -5 -19 -8 -30 -2 -11 -9 -32
-15 -47 -6 -16 -8 -28 -5 -28 2 0 0 -9 -6 -21 -6 -11 -14 -30 -16 -42 -9 -38
-12 -52 -14 -52 -1 0 -3 -8 -6 -17 -2 -10 -6 -26 -8 -35 -3 -10 -5 -18 -6 -18
-1 0 -3 -7 -5 -15 -1 -8 -9 -35 -16 -60 -7 -25 -13 -47 -14 -50 -1 -3 -9 -31
-19 -64 -10 -32 -20 -66 -21 -75 -2 -9 -4 -17 -5 -18 -2 -2 -4 -7 -5 -13 -1
-5 -4 -12 -5 -15 -1 -3 -3 -8 -4 -12 -2 -5 -8 -28 -16 -53 -7 -25 -15 -52 -17
-60 -8 -41 -32 -103 -33 -90 -3 25 -8 63 -14 110 -3 25 -9 65 -12 90 -3 25 -8
59 -10 75 -3 17 -6 44 -8 60 -2 17 -7 46 -11 65 -3 19 -9 53 -11 75 -3 22 -7
54 -10 70 -2 17 -6 44 -8 60 -2 17 -5 30 -6 30 -1 0 -4 14 -5 30 -2 17 -6 45
-9 63 -10 53 -17 95 -20 122 -4 26 -22 129 -32 177 -3 16 -7 39 -9 53 -2 14
-6 36 -9 50 -3 14 -7 36 -10 50 -2 14 -7 39 -11 55 -3 17 -9 44 -12 60 -8 47
-11 60 -13 60 -1 0 -3 11 -5 25 -2 14 -6 35 -9 48 -3 12 -8 30 -10 40 -2 9
-12 46 -21 82 -9 36 -19 73 -21 83 -4 25 -62 206 -73 232 -31 70 -80 167 -106
205 -69 106 -221 226 -308 244 -12 3 -33 8 -47 11 -24 6 -188 14 -193 9z"/>
</g>
</svg>
